<svg width="82" height="25" viewBox="0 0 82 25" fill="none" xmlns="http://www.w3.org/2000/svg">
<g clip-path="url(#clip0_2794_9214)">
<path fill-rule="evenodd" clip-rule="evenodd" d="M23.94 6.12965C23.94 2.81965 21.26 0.149648 17.95 0.139648H11.96V6.01965C11.91 2.76965 9.26 0.149648 5.99 0.139648C2.68 0.139648 0 2.81965 0 6.12965V12.1196H5.86C2.61 12.1796 0 14.8396 0 18.0996C0 21.3596 2.68 24.0896 5.99 24.0896H11.98V18.2096C12.04 21.4696 14.69 24.0896 17.96 24.0896C21.23 24.0896 23.95 21.4096 23.95 18.0996V12.1096H18.09C21.34 12.0496 23.95 9.38965 23.95 6.12965H23.94ZM11.97 18.0496C11.94 14.7896 9.31 12.1496 6.05 12.1196C9.31 12.0896 11.95 9.44965 11.97 6.18965C12 9.44965 14.64 12.0896 17.89 12.1196C14.63 12.1496 11.99 14.7896 11.97 18.0496Z" fill="black"/>
<path fill-rule="evenodd" clip-rule="evenodd" d="M54.2297 10.94H52.9397C53.4697 8.54 53.7397 6.09 53.7397 3.63V1.59C53.7397 0.71 53.0297 0 52.1497 0H43.9597C43.8697 0 43.7997 0.07 43.7997 0.16V1.87C43.7997 2.9 44.6397 3.74 45.6697 3.74H49.5197C49.5197 6.15 49.2997 8.56 48.8797 10.94H42.0497C42.5797 8.54 42.8497 6.09 42.8497 3.63V1.59C42.8497 0.71 42.1397 0 41.2597 0H33.8597C33.7697 0 33.6997 0.07 33.6997 0.16V1.87C33.6997 2.9 34.5397 3.74 35.5697 3.74H38.6297C38.6297 6.15 38.4097 8.56 37.9897 10.94H31.5897C31.4997 10.94 31.4297 11.01 31.4297 11.1V12.27C31.4497 13.66 32.5897 14.79 33.9797 14.79H41.8397V23.98C41.8397 24.07 41.9097 24.14 41.9997 24.14H43.2897C44.6997 24.15 45.8397 23.02 45.8397 21.61V14.8H56.6297C56.7197 14.8 56.7897 14.73 56.7897 14.64L56.7697 13.44C56.7397 12.06 55.6097 10.95 54.2297 10.95V10.94Z" fill="black"/>
<path fill-rule="evenodd" clip-rule="evenodd" d="M61.4709 4.80988H73.2909C73.3809 4.80988 73.4509 4.87988 73.4509 4.96988V7.15988C73.4509 9.46988 73.2809 11.7799 72.9509 14.0699L72.7009 15.7699H75.2809C76.2309 15.7699 77.0509 15.0999 77.2309 14.1599C77.6809 11.8199 77.9109 9.43988 77.9109 7.04988V2.46988C77.9109 1.58988 77.2009 0.879883 76.3209 0.879883H59.0409C58.9509 0.879883 58.8809 0.949883 58.8809 1.03988V2.22988C58.8809 3.64988 60.0309 4.79988 61.4509 4.79988L61.4709 4.80988Z" fill="black"/>
<path fill-rule="evenodd" clip-rule="evenodd" d="M81.7897 20.1404C81.7597 18.7604 80.6297 17.6504 79.2497 17.6504H57.0897C56.9997 17.6504 56.9297 17.7204 56.9297 17.8104V19.2504C56.9597 20.6404 58.0897 21.7704 59.4797 21.7704H81.6497C81.7397 21.7704 81.8097 21.7004 81.8097 21.6104L81.7797 20.1504L81.7897 20.1404Z" fill="black"/>
</g>
<defs>
<clipPath id="clip0_2794_9214">
<rect width="81.82" height="24.14" fill="white"/>
</clipPath>
</defs>
</svg>
